# xmcd
#
# Track frame offsets:
#	150
#	15252
#	25482
#	36392
#	46840
#	59082
#	71332
#	85385
#	98385
#	110182
#	122137
#	134157
#	146282
#	163122
#
# Disc length: 2331 seconds
#
# Revision: 0
# Processed by: cddbd v1.5.1PL0 Copyright (c) Steve Scherf et al.
# Submitted via: audiograbber 1.83.01
#
DISCID=c509190e
DTITLE=Gino e Geno - BIS Sertanejo - CD1
DYEAR=2003
DGENRE=Sertanejo
TTITLE0=As águas de São Francisco
TTITLE1=Fim de baile
TTITLE2=Recado
TTITLE3=A mãe do soldado
TTITLE4=Mulher bicho bom
TTITLE5=Eu e minha canoa
TTITLE6=Angustia
TTITLE7=Farda preta
TTITLE8=Proposta
TTITLE9=Vem pra mim cabelo loiro
TTITLE10=Morena dos olhos verdes
TTITLE11=Quem ama perdoa
TTITLE12=Saudade de mãe
TTITLE13=Serra da Mantiqueira
EXTD=
EXTT0=
EXTT1=
EXTT2=
EXTT3=
EXTT4=
EXTT5=
EXTT6=
EXTT7=
EXTT8=
EXTT9=
EXTT10=
EXTT11=
EXTT12=
EXTT13=
PLAYORDER=
